<?xml version="1.0" standalone="no"?>
<!DOCTYPE svg PUBLIC "-//W3C//DTD SVG 20010904//EN"
 "http://www.w3.org/TR/2001/REC-SVG-20010904/DTD/svg10.dtd">
<svg version="1.0" xmlns="http://www.w3.org/2000/svg"
 width="973.000000pt" height="973.000000pt" viewBox="0 0 973.000000 973.000000"
 preserveAspectRatio="xMidYMid meet">
<metadata>
Created by potrace 1.14, written by Peter Selinger 2001-2017
</metadata>
<g transform="translate(0.000000,973.000000) scale(0.100000,-0.100000)"
fill="#000000" stroke="none">
<path d="M4917 9384 c-1 -1 -69 -4 -152 -8 -141 -6 -194 -10 -290 -22 -108
-14 -142 -17 -167 -18 -16 -1 -28 -3 -28 -6 0 -5 -46 -11 -97 -14 -13 0 -23
-5 -23 -9 0 -5 -4 -6 -8 -3 -5 3 -24 1 -43 -4 -19 -5 -50 -12 -69 -15 -19 -3
-60 -12 -90 -20 -30 -8 -66 -16 -80 -19 -27 -6 -99 -26 -172 -49 -27 -8 -48
-12 -48 -9 0 3 -5 1 -12 -6 -7 -7 -18 -12 -25 -12 -12 0 -226 -75 -291 -102
-15 -6 -29 -12 -32 -13 -87 -30 -450 -202 -462 -220 -4 -5 -8 -6 -8 -1 0 5 -8
2 -17 -6 -10 -8 -25 -18 -35 -21 -9 -3 -53 -28 -98 -56 -45 -28 -83 -51 -86
-51 -4 0 -174 -111 -209 -136 -11 -8 -56 -40 -100 -72 -45 -31 -87 -63 -95
-70 -8 -7 -40 -31 -70 -54 -30 -24 -57 -45 -60 -48 -3 -3 -36 -32 -75 -65 -86
-73 -161 -143 -273 -255 -47 -47 -80 -75 -73 -62 6 12 15 22 19 22 4 0 12 11
19 25 14 32 0 24 -41 -23 -17 -20 -36 -40 -41 -46 -41 -43 -165 -196 -159
-196 4 0 15 10 26 23 11 12 31 36 46 52 15 17 46 52 69 78 24 26 43 45 43 41
0 -5 -78 -98 -142 -169 -16 -16 -28 -34 -28 -39 0 -4 -6 -6 -14 -3 -15 6 -30
-9 -99 -103 -26 -36 -51 -70 -56 -76 -25 -31 -163 -238 -201 -304 -24 -41 -47
-77 -50 -80 -23 -22 -245 -484 -242 -502 1 -5 -3 -8 -8 -8 -5 0 -9 -3 -9 -7 1
-5 0 -11 -1 -15 -1 -5 -3 -11 -4 -15 -1 -5 -10 -25 -19 -47 -9 -21 -17 -41
-17 -45 0 -3 -9 -28 -19 -56 -32 -81 -35 -90 -36 -100 -1 -5 -5 -19 -9 -30
-23 -61 -31 -89 -77 -265 -16 -63 -31 -126 -33 -140 -2 -14 -7 -36 -10 -50 -3
-14 -8 -47 -11 -75 -6 -69 -15 -127 -22 -145 -3 -8 -7 -28 -10 -45 -2 -16 -8
-43 -13 -60 -10 -35 -18 -81 -25 -150 -3 -27 -7 -70 -9 -95 -5 -46 -14 -97
-20 -116 -2 -6 0 -17 5 -25 7 -11 9 -9 9 9 0 12 4 22 10 22 9 0 6 -134 -4
-185 -30 -152 -19 -418 20 -496 7 -15 11 -29 8 -32 -7 -6 -6 -170 0 -207 8
-44 18 -104 21 -130 9 -64 14 -88 25 -130 7 -25 14 -54 15 -65 5 -33 55 -215
82 -300 14 -44 26 -87 27 -95 1 -9 5 -21 10 -28 4 -6 9 -22 12 -34 3 -13 6
-27 7 -33 2 -5 5 -14 8 -20 3 -5 12 -32 19 -58 9 -33 17 -46 26 -43 8 3 14 -1
14 -9 0 -8 0 -17 0 -20 1 -8 34 -84 78 -175 22 -47 44 -98 48 -115 4 -16 28
-66 53 -110 26 -44 66 -118 90 -165 24 -47 64 -112 88 -145 24 -33 43 -63 43
-67 1 -22 238 -372 269 -398 4 -3 38 -43 76 -90 278 -340 501 -558 800 -782
131 -98 233 -168 244 -168 5 0 11 -4 13 -8 3 -7 58 -43 181 -116 202 -120 492
-254 722 -336 66 -23 127 -45 135 -48 66 -24 390 -110 445 -118 22 -3 42 -7
45 -9 3 -2 23 -6 45 -9 22 -4 47 -8 55 -11 8 -2 35 -7 60 -10 25 -2 54 -7 65
-9 11 -2 45 -7 75 -11 30 -3 68 -9 83 -11 28 -5 97 -10 247 -19 160 -11 481
-5 638 10 28 3 76 7 105 10 30 3 62 7 73 9 11 2 47 7 79 11 59 7 70 9 130 21
17 4 41 8 55 9 14 2 26 4 28 5 1 1 11 4 22 5 11 1 21 3 23 5 3 2 22 6 62 13
42 7 187 44 270 69 75 23 80 24 110 32 44 10 308 109 380 141 17 8 59 27 95
43 36 16 81 40 102 54 20 14 65 35 100 48 34 13 74 31 87 39 13 8 30 16 37 17
7 1 27 12 43 23 16 12 32 21 36 21 3 0 33 18 66 40 33 22 65 40 70 40 5 0 9 3
9 8 0 4 17 16 37 27 20 11 41 25 47 30 13 12 222 158 281 196 22 15 56 42 76
60 19 19 73 68 119 109 128 116 134 122 169 170 18 25 76 90 129 146 53 55
106 111 117 125 37 45 151 204 189 262 20 32 56 77 80 100 23 23 43 46 43 50
1 8 108 165 132 193 5 6 17 26 26 45 10 19 21 36 25 39 4 3 10 16 14 30 3 14
3 19 0 13 -7 -17 -43 -17 -40 0 1 6 17 41 36 77 19 36 34 67 35 70 0 5 40 97
75 175 40 88 150 406 165 479 3 10 9 33 15 51 6 18 13 42 15 54 3 11 7 31 11
43 3 13 7 32 9 43 5 22 9 38 24 100 6 22 12 56 16 75 3 19 10 58 15 85 5 28
12 68 15 90 3 22 8 60 11 85 3 25 7 58 10 75 17 131 22 373 11 545 -7 112 -5
100 -14 100 -5 0 -8 -54 -8 -121 0 -66 -3 -126 -7 -132 -3 -6 -2 -21 3 -34 5
-12 5 -23 1 -23 -4 0 -8 -19 -9 -43 -3 -57 -11 -155 -16 -192 -3 -16 -8 -57
-12 -90 -4 -32 -9 -68 -11 -80 -2 -11 -7 -42 -10 -70 -3 -27 -8 -53 -10 -56
-2 -4 -6 -22 -9 -40 -3 -19 -15 -72 -25 -119 -11 -47 -22 -94 -24 -105 -8 -47
-88 -320 -105 -360 -5 -11 -15 -36 -21 -55 -27 -75 -105 -255 -113 -261 -5 -3
-8 -10 -8 -15 0 -10 -50 -111 -81 -164 -12 -19 -26 -44 -33 -55 -6 -11 -25
-42 -43 -70 -18 -27 -32 -54 -33 -60 -1 -5 -9 -21 -19 -35 -9 -14 -27 -46 -40
-73 -13 -26 -32 -55 -42 -64 -10 -9 -18 -20 -18 -25 0 -14 -142 -212 -174
-243 -6 -6 -27 -30 -46 -55 -53 -69 -102 -122 -265 -284 -249 -249 -316 -310
-420 -391 -142 -110 -391 -275 -416 -275 -5 0 -9 -4 -9 -9 0 -5 -7 -11 -15
-15 -8 -3 -15 -2 -15 2 0 6 139 100 164 111 9 4 39 28 61 49 8 6 16 12 20 12
8 0 109 76 185 139 30 26 65 55 79 66 111 92 361 346 361 368 0 3 -31 -24 -69
-61 -74 -73 -243 -230 -277 -259 -12 -10 -41 -34 -65 -53 -23 -19 -54 -45 -68
-58 -40 -34 -134 -102 -142 -102 -4 0 -14 -6 -21 -13 -18 -17 -97 -69 -130
-86 -16 -7 -28 -17 -28 -22 0 -5 -9 -9 -19 -9 -11 0 -23 -5 -26 -10 -7 -11
-101 -61 -111 -59 -4 0 -10 -3 -13 -8 -3 -5 -22 -17 -42 -26 -19 -9 -51 -30
-70 -47 -33 -29 -219 -130 -269 -145 -14 -4 -38 -13 -55 -20 -39 -17 -114 -45
-118 -44 -1 0 -10 -3 -19 -6 -10 -4 -23 -5 -30 -3 -7 3 5 11 27 18 45 15 130
52 255 113 98 47 95 45 88 52 -5 5 -80 -27 -161 -67 -9 -4 -50 -21 -90 -37
-39 -15 -81 -32 -92 -36 -11 -5 -22 -9 -25 -10 -3 -1 -17 -7 -32 -13 -66 -27
-373 -126 -385 -124 -2 1 -17 -4 -35 -9 -84 -27 -340 -84 -413 -94 -27 -3 -59
-8 -70 -10 -26 -5 -104 -15 -174 -21 -31 -3 -76 -7 -101 -9 -71 -7 -347 -6
-430 1 -41 3 -90 7 -107 8 -18 1 -35 4 -37 7 -3 3 77 6 177 6 176 1 415 9 507
18 25 2 72 7 105 10 33 3 69 7 80 9 11 2 43 7 70 10 28 4 90 20 139 37 49 17
94 28 101 25 7 -2 16 -1 21 4 5 5 20 11 34 14 62 12 230 59 352 99 147 49 235
82 363 137 11 5 74 34 140 66 66 31 123 57 128 56 4 -1 7 2 7 8 0 5 5 10 11
10 16 0 242 129 251 143 4 7 8 9 8 4 0 -4 24 9 53 28 28 20 61 41 71 48 11 7
28 20 38 30 10 9 18 14 18 10 0 -3 10 3 23 14 12 11 51 40 87 66 36 25 81 59
100 76 19 17 38 31 43 31 4 0 7 7 7 15 0 16 -5 13 -79 -52 -20 -18 -44 -35
-53 -39 -10 -3 -18 -10 -18 -15 0 -5 -6 -9 -14 -9 -8 0 -16 -3 -18 -7 -4 -9
-21 -22 -158 -113 -58 -38 -110 -74 -116 -79 -7 -5 -36 -22 -65 -37 -30 -16
-56 -31 -59 -34 -7 -7 -65 -33 -66 -28 0 1 -8 -5 -18 -15 -10 -9 -25 -17 -34
-17 -9 0 -26 -7 -36 -15 -11 -8 -27 -15 -35 -15 -15 0 7 17 49 36 20 10 206
120 250 149 30 19 180 118 228 150 8 6 24 18 34 27 10 10 21 18 26 18 4 0 21
13 38 28 18 15 61 52 97 82 66 56 120 118 60 69 -17 -13 -54 -44 -84 -67 -30
-24 -63 -51 -74 -61 -71 -60 -465 -308 -465 -293 0 4 -4 2 -8 -5 -7 -11 -288
-152 -397 -200 -130 -56 -178 -73 -190 -63 -7 6 -16 5 -23 -2 -7 -7 -12 -9
-12 -5 0 10 -82 -22 -101 -39 -10 -9 -23 -17 -31 -18 -27 -6 -73 -18 -88 -23
-21 -8 -26 -10 -100 -27 -146 -35 -286 -67 -310 -71 -59 -10 -87 -15 -110 -20
-25 -6 -45 -9 -125 -20 -22 -3 -50 -7 -63 -9 -20 -5 -80 -10 -212 -21 -62 -6
-306 -6 -355 0 -22 2 -62 9 -90 15 -62 13 -128 19 -270 24 -60 2 -137 9 -170
15 -33 6 -75 13 -94 16 -19 3 -37 8 -41 10 -4 2 -22 7 -41 10 -131 23 -580
177 -754 260 -27 13 -99 45 -160 70 -60 26 -123 55 -140 63 -16 9 -33 15 -37
14 -5 -1 -8 2 -8 8 0 5 -5 10 -10 10 -25 0 -273 171 -360 249 -19 17 -40 31
-47 31 -6 0 -13 4 -15 8 -1 4 -32 30 -68 57 -36 27 -66 53 -68 57 -2 4 -10 8
-18 8 -8 0 -14 4 -14 8 0 4 -21 24 -47 44 -27 20 -57 45 -68 55 -11 10 -54 47
-95 83 -87 76 -251 239 -332 331 -82 93 -111 127 -153 184 -16 22 -32 42 -36
45 -14 13 -89 120 -89 129 0 5 -4 11 -8 13 -11 4 -131 199 -178 288 -21 41
-42 77 -45 80 -6 6 -79 155 -116 240 -14 30 -31 69 -38 85 -52 117 -150 407
-181 535 -2 8 -12 49 -23 90 -11 41 -23 91 -26 110 -3 19 -10 53 -15 75 -5 22
-11 58 -14 80 -4 23 -9 52 -11 65 -10 50 -14 76 -21 140 -3 36 -8 79 -10 95
-24 201 -24 623 0 820 21 168 21 169 36 260 7 39 13 77 15 85 1 11 20 98 30
140 1 3 5 21 9 40 96 421 318 931 569 1304 82 122 226 312 279 367 9 10 22 27
28 39 12 22 25 39 69 88 16 19 25 23 28 14 3 -9 19 1 46 28 32 33 37 44 26 51
-11 6 -4 18 31 55 102 107 241 234 355 323 50 39 95 74 100 79 56 45 274 186
395 256 87 51 424 216 450 221 3 0 27 11 54 23 27 12 54 22 60 22 7 0 16 4 21
8 11 10 339 118 385 127 8 2 51 12 95 23 82 21 258 57 330 67 22 3 51 8 65 10
47 8 216 23 342 30 50 2 94 9 97 14 3 5 23 16 44 25 38 16 170 16 286 0 33 -4
41 -3 35 7 -5 9 -2 10 12 4 10 -4 31 -8 47 -8 15 0 27 -6 27 -14 0 -7 5 -13
11 -13 5 0 7 5 4 10 -3 6 -2 10 4 10 5 0 12 -4 15 -8 3 -5 20 -9 38 -10 18 -1
51 -4 73 -7 22 -3 61 -7 86 -10 25 -3 56 -8 70 -11 13 -3 38 -7 54 -10 17 -2
44 -6 60 -9 65 -11 150 -14 125 -6 -24 9 -24 9 -2 10 12 1 22 6 22 12 0 7 9 9
23 5 12 -4 33 -9 47 -12 60 -13 219 -71 213 -78 -5 -4 -1 -7 7 -5 21 3 51 -11
44 -22 -3 -5 -13 -9 -22 -9 -15 0 -15 2 -2 10 8 5 10 10 5 10 -6 0 -16 -5 -23
-12 -9 -9 -12 -9 -12 1 0 8 -6 11 -15 7 -8 -3 -15 -2 -15 3 0 5 -11 11 -25 13
-14 3 -25 3 -25 1 0 -3 50 -24 60 -25 3 0 11 -4 18 -10 6 -6 12 -8 12 -4 0 5
56 -13 105 -35 11 -5 54 -20 95 -35 41 -14 89 -32 105 -39 112 -50 208 -84
218 -79 7 4 9 4 5 -1 -7 -8 15 -23 55 -38 11 -4 16 -3 12 3 -3 6 -12 10 -19
10 -8 0 -19 6 -25 14 -10 12 -5 12 30 -1 23 -7 48 -12 56 -9 7 3 13 0 13 -6 0
-6 3 -9 6 -5 4 3 13 -1 22 -9 11 -11 17 -12 22 -4 5 8 9 7 14 -5 3 -9 10 -14
15 -10 5 3 13 0 17 -6 5 -8 3 -9 -7 -4 -12 8 -12 6 0 -9 9 -11 17 -13 21 -6 4
7 17 5 38 -6 33 -16 45 -31 16 -20 -9 3 -12 2 -9 -5 4 -6 14 -8 22 -5 9 4 37
-7 64 -24 27 -16 54 -30 59 -30 6 0 10 -4 10 -10 0 -5 5 -10 10 -10 17 0 342
-220 370 -250 3 -3 30 -24 60 -47 30 -23 69 -54 85 -68 181 -157 344 -320 471
-470 102 -121 206 -255 198 -255 -4 0 3 -8 14 -19 12 -10 22 -20 22 -23 0 -3
29 -49 65 -104 36 -54 65 -95 65 -90 0 13 -145 247 -169 273 -12 12 -21 26
-21 30 0 4 -12 22 -28 38 -15 17 -44 52 -65 79 -76 100 -157 192 -285 323 -40
41 -78 85 -84 97 -12 23 196 -187 246 -248 17 -21 41 -50 54 -64 13 -14 35
-41 50 -60 15 -19 34 -42 42 -52 8 -9 26 -32 40 -51 14 -18 37 -47 53 -65 15
-17 27 -36 27 -42 0 -6 4 -12 8 -14 5 -1 28 -30 51 -63 24 -33 49 -64 55 -70
23 -20 115 -181 97 -171 -6 4 -11 1 -11 -6 0 -7 -14 3 -30 22 -24 28 -19 13
27 -75 62 -121 90 -165 104 -165 5 0 -11 32 -35 71 -31 52 -41 78 -38 97 5 23
16 5 74 -113 37 -77 68 -146 68 -152 0 -7 5 -13 10 -13 6 0 10 -6 10 -13 0 -7
17 -55 39 -107 48 -120 155 -420 166 -470 2 -8 8 -28 15 -45 6 -16 11 -32 11
-35 0 -6 9 -46 16 -72 2 -10 10 -18 17 -18 11 0 47 -119 51 -165 1 -10 14 -83
22 -120 2 -11 6 -36 8 -55 3 -19 7 -46 10 -60 2 -14 7 -49 10 -79 4 -30 8 -62
10 -71 9 -46 21 -230 26 -405 1 -54 3 -62 8 -35 12 67 2 435 -13 517 -2 10 -7
46 -11 78 -4 33 -9 69 -11 80 -6 29 -13 70 -19 108 -3 17 -8 39 -10 47 -2 8
-7 31 -10 50 -3 19 -8 43 -11 52 -5 17 -11 43 -20 88 -12 58 -77 279 -115 388
-22 64 -42 122 -43 127 -2 6 -8 24 -15 40 -7 17 -26 63 -42 103 -61 152 -114
258 -145 290 -18 18 -36 47 -40 65 -24 113 -248 444 -510 757 -66 78 -376 382
-469 459 -109 90 -295 232 -362 276 -24 15 -43 32 -43 36 0 5 -5 9 -10 9 -6 0
-16 5 -23 10 -16 14 -137 90 -142 90 -3 0 -33 17 -67 38 -221 133 -674 316
-963 388 -16 4 -34 8 -40 10 -15 4 -95 22 -133 29 -13 2 -31 6 -40 9 -9 3 -30
8 -47 11 -16 2 -41 7 -55 10 -35 7 -68 13 -125 21 -27 3 -58 8 -69 10 -31 6
-129 16 -176 20 -25 1 -45 3 -45 4 0 6 -219 13 -385 13 -297 0 -473 -13 -730
-55 -36 -6 -75 -12 -87 -13 -12 -2 -34 -6 -50 -9 -15 -4 -41 -9 -57 -12 -40
-7 -81 -25 -151 -68 -67 -40 -68 -42 -10 -21 48 17 65 18 65 5 0 -5 -8 -10
-19 -10 -10 0 -37 -7 -60 -15 -23 -8 -52 -16 -64 -18 -12 -2 -29 -7 -37 -10
-8 -3 -45 -15 -82 -26 -81 -24 -208 -72 -333 -126 -27 -12 -66 -28 -85 -35
-19 -8 -37 -16 -40 -19 -3 -3 -43 -24 -90 -46 -47 -22 -87 -42 -90 -45 -3 -3
-16 -11 -30 -17 -187 -91 -590 -365 -774 -528 -69 -61 -117 -102 -226 -190
-65 -53 -214 -211 -288 -305 -46 -58 -90 -113 -98 -123 -8 -9 -14 -20 -14 -23
0 -2 -5 -10 -10 -17 -32 -38 -100 -139 -100 -147 0 -6 -3 -10 -8 -10 -4 0 -16
-17 -27 -37 -11 -20 -24 -41 -30 -47 -5 -6 -32 -44 -59 -84 -27 -39 -51 -72
-53 -72 -6 0 29 63 73 133 24 37 44 70 44 74 0 6 140 201 182 253 16 19 33 41
39 48 172 213 344 386 649 652 14 12 45 39 70 59 25 20 47 38 50 41 26 26 111
90 119 90 15 0 42 16 123 73 37 26 73 47 78 47 6 0 10 4 10 9 0 13 88 66 135
82 22 8 57 24 77 36 35 22 273 138 331 161 27 11 39 42 15 38 -7 -1 -39 -14
-72 -29 -32 -15 -64 -27 -71 -27 -7 0 -18 -7 -25 -15 -7 -8 -18 -15 -24 -15
-18 0 -66 -24 -66 -32 0 -5 -5 -8 -11 -8 -13 0 -128 -57 -196 -97 -67 -39 -50
-19 20 24 81 50 143 84 247 136 47 23 88 47 92 52 4 6 8 7 8 2 0 -4 26 6 58
21 31 16 89 41 127 57 39 15 84 33 100 40 28 12 65 25 90 31 6 2 40 14 77 27
37 14 69 22 72 19 4 -3 6 1 6 8 0 7 2 11 5 8 3 -3 36 4 73 15 99 29 332 84
387 92 27 3 51 8 55 10 3 2 30 6 60 10 30 3 64 8 75 10 179 37 719 48 975 19
25 -3 65 -7 90 -9 25 -3 77 -9 115 -15 39 -6 84 -12 100 -15 17 -2 48 -7 70
-11 22 -4 46 -7 53 -7 6 0 12 -3 12 -6 0 -3 10 -7 23 -7 46 -3 67 -9 67 -17 0
-4 4 -6 9 -3 5 3 71 -10 147 -29 77 -20 149 -38 161 -40 19 -5 282 -94 338
-115 11 -4 25 -9 30 -10 6 -1 19 -7 30 -13 11 -6 22 -12 25 -12 3 0 28 -11 55
-24 28 -12 55 -24 61 -25 7 -1 19 -8 28 -15 9 -7 16 -11 16 -8 0 5 393 -189
445 -220 17 -10 32 -21 33 -25 2 -5 8 -8 13 -8 17 0 275 -180 336 -235 6 -5
24 -20 40 -32 15 -12 42 -34 60 -50 17 -15 59 -53 94 -83 35 -30 113 -104 173
-163 61 -60 124 -116 140 -124 36 -19 99 -78 74 -70 -10 4 -18 2 -18 -2 0 -12
46 -56 59 -57 6 -1 15 -2 21 -3 5 0 14 -11 21 -22 9 -17 8 -20 -3 -14 -7 4 12
-19 43 -51 92 -96 108 -115 184 -214 80 -107 165 -234 165 -249 0 -5 4 -11 8
-13 9 -3 33 -44 105 -178 23 -41 46 -78 51 -82 6 -4 8 -8 4 -8 -3 0 17 -48 46
-107 29 -60 66 -137 82 -171 32 -72 45 -70 15 1 -11 26 -17 47 -13 47 5 0 14
-17 21 -37 8 -21 23 -58 34 -83 11 -25 21 -47 21 -50 1 -3 18 -50 38 -105 20
-55 46 -134 58 -175 12 -41 26 -86 31 -100 5 -14 11 -36 14 -50 16 -80 40
-160 48 -160 5 0 7 16 4 35 -4 22 -2 33 4 29 10 -6 4 36 -11 71 -16 38 -36
103 -45 150 -3 17 -8 37 -12 45 -3 8 -8 23 -10 33 -1 10 -21 55 -42 101 -22
45 -42 96 -45 112 -2 16 -5 29 -6 29 -1 0 -3 9 -5 20 -10 52 -127 309 -202
445 -17 30 -47 87 -68 125 -62 115 -115 205 -174 295 -57 87 -151 221 -161
230 -3 3 -19 23 -36 45 -146 197 -414 470 -668 680 -67 56 -314 235 -322 235
-4 0 -17 8 -28 18 -21 19 -116 77 -241 150 -75 43 -329 172 -339 172 -3 0 -27
16 -52 35 -25 20 -65 44 -88 54 -40 18 -231 91 -251 96 -5 1 -19 5 -30 9 -45
17 -75 26 -175 54 -98 28 -161 44 -185 48 -5 1 -12 3 -15 4 -8 3 -27 7 -130
29 -87 18 -133 26 -200 36 -14 2 -38 6 -55 9 -35 5 -190 24 -255 31 -104 10
-476 25 -483 19z m-67 -240 c0 -8 -19 -13 -24 -6 -3 5 1 9 9 9 8 0 15 -2 15
-3z m94 -5 c3 -3 -8 -6 -24 -7 -17 -1 -30 1 -30 6 0 8 46 9 54 1z m40 3 c3 -5
-1 -9 -9 -9 -8 0 -12 4 -9 9 3 4 7 8 9 8 2 0 6 -4 9 -8z m-235 -7 c-3 -2 -23
-7 -45 -10 -21 -3 -46 -8 -54 -11 -28 -11 -120 -21 -120 -13 0 7 23 14 90 27
43 9 135 14 129 7z m54 -2 c-7 -2 -21 -2 -30 0 -10 3 -4 5 12 5 17 0 24 -2 18
-5z m240 0 c-7 -2 -21 -2 -30 0 -10 3 -4 5 12 5 17 0 24 -2 18 -5z m-769 -45
c-4 -6 1 -8 14 -4 11 4 37 9 58 12 22 2 48 7 59 10 20 5 20 5 1 -10 -11 -9
-36 -17 -55 -17 -69 -3 -96 -6 -116 -12 -11 -3 -38 -8 -60 -12 -67 -10 -97
-15 -163 -30 -75 -18 -72 -17 -72 -6 0 8 47 21 95 27 6 0 21 4 35 7 31 9 69
15 92 16 11 1 15 6 12 15 -4 11 5 16 38 18 51 4 70 -1 62 -14z m1910 13 c4 -5
-3 -7 -14 -4 -23 6 -26 13 -6 13 8 0 17 -4 20 -9z m-2034 -11 c0 -5 -5 -10
-11 -10 -5 0 -7 5 -4 10 3 6 8 10 11 10 2 0 4 -4 4 -10z m2120 -22 c0 -8 -58
11 -65 21 -2 4 11 3 30 -3 19 -6 35 -14 35 -18z m-1460 -40 c0 -4 -4 -8 -9 -8
-6 0 -12 4 -15 8 -3 5 1 9 9 9 8 0 15 -4 15 -9z m122 0 c-11 -11 -105 -13
-109 -3 -2 6 22 10 57 10 32 0 56 -3 52 -7z m303 -8 c45 -7 46 -8 15 -10 -129
-7 -162 -5 -171 11 -8 15 -2 16 49 12 31 -2 80 -8 107 -13z m95 -12 c0 -3 -9
-6 -20 -5 -11 1 -20 5 -20 9 0 3 9 6 20 5 11 -1 20 -5 20 -9z m254 -13 c3 -9
0 -15 -9 -15 -9 0 -12 6 -9 15 4 8 7 15 9 15 2 0 5 -7 9 -15z m121 -17 c3 -3
-19 -4 -48 -4 -47 1 -66 9 -67 28 0 6 107 -16 115 -24z m429 -38 c-21 -8 -64
-1 -64 10 0 14 33 17 58 6 21 -9 22 -11 6 -16z m112 -116 c-6 -14 7 -23 38
-28 17 -2 34 -16 20 -16 -5 0 -26 5 -47 11 -31 8 -36 13 -27 24 7 8 8 20 4 26
-5 8 -3 9 5 5 7 -5 10 -14 7 -22z m44 6 c13 -8 13 -10 -2 -10 -9 0 -20 5 -23
10 -8 13 5 13 25 0z m80 -25 c17 -9 30 -12 30 -8 0 4 5 2 12 -5 7 -7 20 -12
31 -12 11 0 15 -4 11 -12 -5 -8 -2 -9 12 -4 10 4 15 4 11 0 -4 -4 -2 -13 5
-21 6 -8 -10 -3 -35 11 -26 13 -47 22 -47 20 0 -3 -13 2 -29 10 -16 9 -31 12
-35 9 -3 -4 -6 1 -6 10 0 21 3 21 40 2z m-30 -35 c0 -5 -2 -10 -4 -10 -3 0 -8
5 -11 10 -3 6 -1 10 4 10 6 0 11 -4 11 -10z m221 -43 c-1 -12 -15 -9 -19 4 -3
6 1 10 8 8 6 -3 11 -8 11 -12z m67 -38 c2 -8 -2 -6 -8 4 -6 9 -16 17 -21 17
-6 0 -7 -4 -4 -10 4 -6 -1 -7 -11 -3 -11 4 -13 8 -6 11 7 2 9 9 5 15 -4 7 4 5
17 -4 13 -9 26 -22 28 -30z m60 -30 c10 0 35 -9 57 -20 l40 -19 -35 6 c-19 4
-36 10 -38 15 -2 4 -10 5 -19 2 -15 -6 -33 12 -32 32 0 6 3 4 6 -2 2 -7 12
-13 21 -14z m635 -258 c46 -39 32 -46 -18 -9 -30 22 -55 45 -55 50 0 9 41 -14
73 -41z m321 -255 l41 -39 -50 39 c-61 47 -75 60 -75 70 0 8 24 -12 84 -70z
m1304 -1381 c-3 -3 -9 2 -12 12 -6 14 -5 15 5 6 7 -7 10 -15 7 -18z m-1799
-5608 c-16 -13 -101 -56 -92 -46 16 16 87 57 92 52 2 -1 2 -4 0 -6z m-125 -72
c-10 -8 -23 -15 -28 -15 -6 0 -1 7 10 15 10 8 23 15 28 15 6 0 1 -7 -10 -15z
m-45 -18 c-2 -1 -13 -9 -24 -17 -19 -14 -19 -14 -6 3 7 9 18 17 24 17 6 0 8
-1 6 -3z m-49 -31 c0 -3 -4 -8 -10 -11 -5 -3 -10 -1 -10 4 0 6 5 11 10 11 6 0
10 -2 10 -4z m-30 -10 c0 -3 -38 -25 -85 -49 -47 -24 -85 -41 -85 -38 0 4 37
25 83 48 92 47 87 45 87 39z m-190 -94 c0 -4 -15 -14 -32 -21 -18 -8 -67 -30
-108 -49 -77 -35 -243 -101 -270 -107 -8 -2 -32 -11 -52 -19 -21 -9 -64 -23
-95 -32 -99 -27 -207 -56 -223 -59 -8 -2 -35 -8 -60 -13 -25 -6 -65 -13 -90
-17 -25 -3 -53 -8 -62 -11 -18 -5 -61 -11 -158 -19 -36 -4 -71 -8 -77 -10 -7
-3 -13 0 -13 5 0 6 15 10 33 11 17 0 40 2 49 4 9 2 34 6 55 9 37 5 62 10 113
20 14 3 36 7 50 10 14 3 36 7 50 10 14 2 44 9 68 14 23 5 42 7 42 4 0 -3 5 -1
12 6 7 7 22 12 33 12 12 0 25 3 28 7 4 3 20 8 37 10 53 5 441 139 555 191 61
28 111 50 113 51 1 1 2 -2 2 -7z"/>
<path d="M3615 8978 c-49 -16 -104 -36 -122 -44 -17 -8 -38 -14 -47 -14 -9 0
-16 -4 -16 -9 0 -5 -16 -12 -35 -15 -19 -4 -35 -12 -35 -18 0 -5 7 -7 16 -4
14 5 15 4 4 -9 -7 -8 -18 -15 -26 -15 -7 0 -16 -5 -19 -10 -4 -6 18 -1 47 11
81 33 211 81 228 84 8 2 15 4 15 5 0 1 7 3 17 5 9 2 24 8 35 15 17 11 17 11 0
6 -11 -3 -15 -2 -12 4 3 6 12 10 18 10 7 0 21 7 31 15 28 21 6 18 -99 -17z"/>
<path d="M6065 8850 c-3 -5 -1 -10 4 -10 6 0 11 5 11 10 0 6 -2 10 -4 10 -3 0
-8 -4 -11 -10z"/>
<path d="M6790 8570 c0 -5 5 -10 11 -10 5 0 7 5 4 10 -3 6 -8 10 -11 10 -2 0
-4 -4 -4 -10z"/>
<path d="M6827 8549 c7 -7 15 -10 18 -7 3 3 -2 9 -12 12 -14 6 -15 5 -6 -5z"/>
<path d="M6950 8520 c0 -5 5 -10 11 -10 5 0 7 5 4 10 -3 6 -8 10 -11 10 -2 0
-4 -4 -4 -10z"/>
<path d="M4752 7340 c-60 -31 -128 -95 -173 -165 -33 -52 -89 -169 -104 -220
-11 -35 -16 -40 -41 -39 -16 1 -39 4 -51 8 -171 47 -287 52 -402 17 -63 -19
-104 -48 -153 -109 -43 -53 -56 -186 -28 -280 12 -39 11 -46 -9 -83 -50 -89
-15 -200 77 -242 26 -12 63 -20 83 -19 33 2 41 -3 83 -54 25 -31 46 -60 46
-64 0 -4 -14 -22 -30 -41 -119 -134 -226 -318 -254 -437 -40 -172 27 -312 175
-367 43 -16 78 -20 169 -19 106 0 172 11 302 50 14 4 30 -18 33 -46 1 -15 63
-152 87 -193 85 -145 197 -224 312 -221 148 4 267 118 366 349 27 63 30 70 30
83 1 27 17 31 70 17 186 -51 311 -58 413 -24 163 53 235 198 189 381 -14 54
-13 59 7 92 26 42 30 120 8 162 -32 61 -88 96 -161 99 -39 2 -53 7 -64 24 -8
12 -27 36 -43 54 -16 17 -29 35 -29 39 0 4 13 22 28 40 169 194 272 410 267
553 -4 114 -81 225 -170 245 -5 1 -19 7 -29 12 -52 28 -234 27 -334 -1 -17 -5
-32 -8 -32 -6 0 2 -22 -5 -50 -15 -55 -20 -58 -19 -79 45 -33 104 -106 230
-171 295 -79 81 -124 103 -212 106 -57 3 -75 -1 -126 -26z m191 -106 c49 -25
108 -94 155 -183 24 -45 41 -81 37 -81 -3 0 2 -11 11 -25 9 -14 13 -25 8 -25
-4 0 -3 -5 4 -12 23 -23 13 -48 -25 -63 -21 -8 -91 -42 -155 -74 -64 -32 -120
-55 -125 -51 -11 11 -178 96 -235 119 -52 22 -54 26 -36 68 6 15 13 37 15 47
8 41 90 180 136 229 27 29 50 51 53 50 2 -1 18 4 35 11 37 16 77 12 122 -10z
m-678 -401 c11 -4 25 -7 30 -8 28 -2 116 -28 121 -36 3 -5 0 -35 -7 -67 -6
-31 -13 -66 -15 -77 -1 -11 -5 -36 -8 -55 -9 -56 -25 -173 -24 -179 4 -36 -9
-58 -64 -109 -33 -31 -77 -72 -97 -90 l-35 -33 -38 43 c-41 47 -45 62 -25 102
15 28 14 87 -1 126 -23 55 -76 95 -142 105 -19 4 -39 10 -43 14 -17 17 -20
135 -4 172 18 45 70 86 123 98 41 9 195 5 229 -6z m1445 4 c49 -13 94 -47 115
-88 22 -42 12 -153 -21 -229 -15 -36 -31 -67 -34 -70 -3 -3 -14 -21 -24 -40
-18 -33 -98 -143 -148 -203 l-23 -28 -45 42 c-145 134 -150 139 -151 166 0 16
-2 35 -3 43 -2 8 -6 42 -10 75 -3 33 -9 74 -12 90 -4 17 -7 39 -8 50 -2 11 -9
46 -16 79 -13 55 -13 59 5 72 11 8 25 12 32 10 7 -3 13 -2 13 2 0 4 8 9 18 10
9 1 51 8 92 15 67 13 180 14 220 4z m-1117 -114 c18 -9 34 -17 37 -18 3 0 31
-13 64 -29 l58 -29 -28 -22 c-16 -13 -32 -21 -36 -18 -5 2 -8 0 -8 -4 0 -5
-18 -19 -40 -33 -22 -14 -40 -28 -40 -32 0 -5 -5 -8 -11 -8 -7 0 -31 -16 -55
-35 -45 -37 -56 -42 -49 -22 3 6 7 32 9 57 2 25 5 45 6 45 2 0 4 9 5 20 3 24
15 93 20 115 2 8 4 18 4 23 2 12 30 8 64 -10z m617 15 c0 -2 11 -64 24 -138
14 -74 23 -136 22 -137 -1 -2 -38 23 -82 55 -43 31 -103 73 -133 91 l-53 34
28 15 c16 8 31 18 34 22 3 5 14 10 25 12 11 1 22 5 25 8 18 19 109 49 110 38z
m-316 -178 c14 0 219 -139 224 -152 2 -4 8 -8 13 -8 18 0 139 -103 140 -119 6
-75 3 -355 -3 -377 -6 -19 -28 -43 -65 -69 -30 -22 -65 -48 -77 -57 -11 -10
-25 -21 -31 -26 -5 -4 -44 -29 -85 -56 -41 -27 -88 -57 -104 -68 -24 -17 -32
-18 -54 -9 -50 23 -295 195 -340 238 -7 7 -17 13 -22 13 -19 0 -26 69 -25 243
1 178 2 180 26 199 13 11 33 27 44 36 58 48 175 131 175 125 0 -5 4 -3 8 3 10
15 99 74 111 74 6 0 11 4 11 9 0 12 34 19 38 9 2 -4 9 -8 16 -8z m565 -502
c-69 -68 -67 -69 -66 37 l1 96 49 -50 50 -49 -34 -34z m-1114 35 c-1 -49 -3
-89 -4 -90 0 -2 -22 18 -47 43 l-47 45 44 45 c24 24 46 44 50 44 4 0 6 -39 4
-87z m-130 -133 c22 -22 64 -61 93 -87 52 -48 53 -49 57 -114 2 -37 9 -95 15
-130 7 -35 14 -76 16 -91 9 -63 13 -85 22 -114 10 -30 8 -32 -21 -39 -18 -4
-36 -9 -42 -11 -97 -36 -286 -46 -348 -20 -149 65 -142 227 21 476 20 30 39
57 42 60 3 3 21 25 40 50 33 43 49 60 60 60 2 0 23 -18 45 -40z m1406 -8 c34
-45 35 -48 21 -76 -8 -16 -15 -51 -16 -77 -1 -83 74 -163 162 -172 18 -2 34
-6 36 -8 3 -2 8 -36 11 -75 8 -79 -4 -113 -52 -158 -56 -52 -178 -63 -340 -30
-25 5 -89 26 -110 36 -16 8 -20 15 -14 27 5 9 9 19 9 24 0 6 13 82 17 97 1 3
5 30 9 60 5 30 10 64 12 75 2 11 7 43 9 70 3 28 7 58 8 68 4 19 175 186 192
186 6 0 26 -21 46 -47z m-1054 -284 c39 -29 96 -70 128 -92 l57 -38 -99 -49
c-54 -26 -103 -48 -109 -49 -7 0 -15 17 -19 38 -4 20 -9 48 -12 62 -17 88 -29
180 -23 180 3 0 38 -24 77 -52z m690 45 c-3 -5 -8 -28 -11 -53 -18 -132 -36
-220 -46 -220 -5 0 -51 20 -103 44 -93 44 -124 66 -93 66 9 0 16 5 16 10 0 6
7 10 15 10 8 0 15 4 15 8 0 5 12 15 27 23 15 8 35 19 43 26 90 71 151 109 137
86z m-276 -301 c63 -32 129 -63 147 -70 18 -6 35 -18 38 -26 6 -15 -44 -142
-81 -210 -30 -54 -97 -135 -112 -136 -7 0 -13 -4 -13 -10 0 -5 -9 -10 -20 -10
-11 0 -20 -4 -20 -9 0 -15 -92 -6 -126 12 -42 22 -89 72 -130 138 -19 31 -34
59 -34 63 0 3 -11 30 -25 59 -13 30 -27 67 -29 83 -5 29 -3 31 67 61 57 25
220 106 223 112 0 0 52 -25 115 -57z"/>
<path d="M4817 6255 c-122 -42 -159 -185 -74 -279 38 -40 73 -56 128 -56 99 0
184 94 172 190 -2 14 -4 31 -5 38 -1 6 -5 12 -10 12 -5 0 -7 4 -4 8 7 11 -38
58 -72 76 -42 22 -93 26 -135 11z"/>
<path d="M9010 6575 c0 -5 5 -17 10 -25 5 -8 10 -10 10 -5 0 6 -5 17 -10 25
-5 8 -10 11 -10 5z"/>
<path d="M9266 5920 c11 -104 20 -151 35 -164 8 -8 9 -3 5 19 -12 58 -16 80
-21 110 -2 17 -9 44 -14 60 -9 25 -10 20 -5 -25z"/>
<path d="M3578 4345 c-2 -2 -28 -6 -58 -9 -30 -2 -68 -7 -85 -10 -84 -13 -104
-17 -150 -27 -27 -6 -88 -22 -135 -36 -47 -14 -89 -26 -95 -28 -5 -1 -22 -7
-37 -13 l-26 -11 20 -40 c11 -22 21 -48 23 -58 2 -10 4 -18 5 -18 2 0 7 -29
15 -80 2 -16 5 -304 5 -640 1 -358 5 -629 11 -655 19 -90 87 -200 145 -237
106 -69 247 -104 421 -107 62 0 113 -5 113 -9 0 -5 3 -6 8 -3 4 2 39 7 77 10
265 24 461 109 640 281 136 130 225 328 250 553 6 55 6 283 0 312 -3 14 -7 39
-9 55 -2 17 -9 50 -16 75 -7 25 -13 52 -15 60 -5 24 -42 115 -62 152 -86 157
-204 274 -365 362 -65 36 -216 90 -278 100 -19 3 -46 8 -60 11 -25 6 -337 15
-342 10z m287 -288 c38 -9 125 -47 163 -71 125 -79 227 -241 264 -421 16 -81
18 -301 3 -385 -15 -84 -38 -159 -63 -206 -9 -18 -26 -49 -36 -69 -32 -61
-139 -160 -213 -197 -36 -18 -71 -33 -77 -34 -6 -2 -33 -7 -61 -13 -27 -5 -91
-8 -142 -7 -104 4 -171 29 -207 79 -20 28 -21 40 -21 659 l0 630 25 10 c67 26
150 37 245 33 55 -2 109 -6 120 -8z"/>
<path d="M5697 4344 c-1 -1 -31 -5 -67 -8 -36 -3 -76 -8 -90 -10 -14 -3 -43
-7 -65 -10 -32 -4 -124 -26 -255 -60 -8 -2 -26 -9 -40 -14 -14 -5 -29 -11 -35
-12 -5 -1 -20 -6 -32 -11 l-22 -8 24 -53 c14 -29 25 -63 25 -75 0 -12 4 -24 8
-27 5 -3 8 -286 8 -631 -1 -344 1 -625 4 -625 3 0 5 -18 5 -41 0 -22 3 -43 7
-45 5 -3 8 -12 8 -21 0 -35 45 -110 94 -158 74 -73 178 -118 336 -145 84 -15
399 -21 470 -9 30 5 71 11 90 13 19 2 47 9 63 15 15 6 27 9 27 7 0 -4 91 27
145 49 93 38 258 179 285 245 7 16 17 30 22 30 5 0 7 4 4 8 -3 5 0 19 7 33 16
33 22 71 22 154 0 92 -8 126 -44 199 -36 73 -88 130 -167 183 -55 36 -148 81
-184 88 -8 2 -16 4 -17 5 -5 4 -23 7 -44 9 -41 2 -14 18 61 35 53 12 210 128
210 155 0 6 3 11 8 11 12 0 39 71 48 125 12 72 4 177 -15 213 -5 9 -9 21 -9
25 -1 29 -57 112 -113 168 -97 97 -232 157 -414 184 -46 7 -362 15 -368 9z
m317 -305 c238 -82 256 -382 28 -489 -64 -30 -112 -36 -302 -35 l-165 1 -3
256 c-3 284 -8 262 67 275 160 26 283 23 375 -8z m55 -813 c121 -33 195 -88
234 -175 24 -55 26 -149 4 -202 -16 -37 -84 -119 -99 -119 -5 0 -16 -7 -24
-15 -13 -12 -79 -36 -144 -52 -41 -11 -233 -8 -295 4 -101 18 -145 45 -165 99
-10 25 -14 466 -5 475 2 3 100 4 217 3 165 -1 228 -5 277 -18z"/>
<path d="M7667 1684 c-26 -20 -47 -41 -47 -47 0 -5 21 10 48 33 26 24 49 45
51 47 2 2 2 3 -1 3 -2 0 -26 -16 -51 -36z"/>
</g>
</svg>
